<svg height="512" viewBox="0 0 64 64" width="512" xmlns="http://www.w3.org/2000/svg"><g id="Twotone"><g id="Stroke_copy_3" data-name="Stroke copy 3"><g><g><path d="m3 45h36v7h-36z" fill="#a8dba8"/><path d="m50 44a4 4 0 0 1 -4-4v-8h-7v20h22v-8z" fill="#a8dba8"/><path d="m3 23h36v22h-36z" fill="#cff09e"/><path d="m61 44h-11a4 4 0 0 1 -4-4v-8h3v1a8 8 0 0 0 8 8h2z" fill="#cff09e"/><circle cx="49" cy="55" fill="#79bd9a" r="6"/><circle cx="49" cy="55" fill="#cff09e" r="2"/><circle cx="13" cy="55" fill="#79bd9a" r="6"/><circle cx="13" cy="55" fill="#cff09e" r="2"/></g><g><path d="m60 19a15 15 0 0 1 -15-15v-1h-2a4 4 0 0 0 -4 4v12a4 4 0 0 0 4 4h6v5l5-5h3a4 4 0 0 0 4-4z" fill="#cff09e"/><g><rect fill="#a8dba8" height="12" rx="2" width="10" x="45" y="7"/><path d="m55 15h-10a2 2 0 0 1 -2-2 2 2 0 0 1 2-2h10a2 2 0 0 1 2 2 2 2 0 0 1 -2 2z" fill="#79bd9a"/></g></g></g></g><g id="Stroke_Close_copy" data-name="Stroke Close copy"><g fill="#3b8686"><path d="m7 39a1 1 0 0 0 1-1v-3h2a1 1 0 0 0 0-2h-2v-2h3a1 1 0 0 0 0-2h-4a1 1 0 0 0 -1 1v8a1 1 0 0 0 1 1z"/><path d="m23 39h4a1 1 0 0 0 0-2h-3v-2h2a1 1 0 0 0 0-2h-2v-2h3a1 1 0 0 0 0-2h-4a1 1 0 0 0 -1 1v8a1 1 0 0 0 1 1z"/><path d="m31 39h4a1 1 0 0 0 0-2h-3v-2h2a1 1 0 0 0 0-2h-2v-2h3a1 1 0 0 0 0-2h-4a1 1 0 0 0 -1 1v8a1 1 0 0 0 1 1z"/><path d="m15 39a1 1 0 0 0 1-1v-2.829a3.006 3.006 0 0 1 2 2.829 1 1 0 0 0 2 0 4.97 4.97 0 0 0 -1.362-3.408 2.788 2.788 0 0 0 1.362-2.387v-.405a2.8 2.8 0 0 0 -2.8-2.8h-2.2a1 1 0 0 0 -1 1v8a1 1 0 0 0 1 1zm1-8h1.2a.8.8 0 0 1 .8.8v.41a.8.8 0 0 1 -.8.8h-1.2z"/><path d="m49 52a3 3 0 1 0 3 3 3 3 0 0 0 -3-3zm0 4a1 1 0 1 1 1-1 1 1 0 0 1 -1 1z"/><path d="m13 52a3 3 0 1 0 3 3 3 3 0 0 0 -3-3zm0 4a1 1 0 1 1 1-1 1 1 0 0 1 -1 1z"/><path d="m48.617 28.924a1 1 0 0 0 1.09-.217l4.707-4.707h1.586a6.006 6.006 0 0 0 6-6v-11a5.006 5.006 0 0 0 -5-5h-41a1 1 0 0 0 0 2h23.026a4.948 4.948 0 0 0 -1.026 3v2h-10a1 1 0 0 0 0 2h10v4h-5a1 1 0 0 0 0 2h5v2a4.947 4.947 0 0 0 1.031 3.006c-.011 0-.02-.006-.031-.006h-36a1 1 0 0 0 -1 1v29a1 1 0 0 0 1 1h3.3a7 7 0 1 0 13.4 0h22.6a7 7 0 1 0 13.41 0h5.29a1 1 0 0 0 1-1v-8a1.006 1.006 0 0 0 -.168-.555l-8-12a1 1 0 0 0 -.832-.445h-13v-8c0-.011-.006-.02-.006-.031a4.947 4.947 0 0 0 3.006 1.031h5v4a1 1 0 0 0 .617.924zm-10.617-4.924v20h-34v-20zm-25 36a5 5 0 1 1 5-5 5.006 5.006 0 0 1 -5 5zm25-9h-19.264a6.984 6.984 0 0 0 -11.472 0h-3.264v-5h34zm11 9a5 5 0 1 1 5-5 5.006 5.006 0 0 1 -5 5zm10.131-17h-9.131a3 3 0 0 1 -3-3v-7h5.465zm-14.131-10v7a5.006 5.006 0 0 0 5 5h10v6h-5.264a6.984 6.984 0 0 0 -11.472 0h-3.264v-18zm-2-11a3 3 0 0 1 -3-3v-12a3 3 0 0 1 3-3h14a3 3 0 0 1 3 3v11a4 4 0 0 1 -4 4h-2a1 1 0 0 0 -.707.293l-3.293 3.293v-2.586a1 1 0 0 0 -1-1z"/><path d="m56 17v-1.184a2.982 2.982 0 0 0 0-5.632v-1.184a3 3 0 0 0 -3-3h-6a3 3 0 0 0 -3 3v1.184a2.982 2.982 0 0 0 0 5.632v1.184a3 3 0 0 0 3 3h6a3 3 0 0 0 3-3zm-9-9h6a1 1 0 0 1 1 1v1h-8v-1a1 1 0 0 1 1-1zm-2 4h1a1 1 0 0 0 2 0h1a1 1 0 0 0 2 0h1a1 1 0 0 0 2 0h1a1 1 0 0 1 0 2h-10a1 1 0 0 1 0-2zm1 5v-1h8v1a1 1 0 0 1 -1 1h-6a1 1 0 0 1 -1-1z"/><path d="m11 19a1 1 0 0 0 1 1h15a1 1 0 0 0 0-2h-15a1 1 0 0 0 -1 1z"/><path d="m19 15a1 1 0 0 0 0-2h-3a1 1 0 0 0 0 2z"/><path d="m9 9h10a1 1 0 0 0 0-2h-10a1 1 0 0 0 0 2z"/></g></g></g></svg>